<svg xmlns="http://www.w3.org/2000/svg" width="525.8" height="239.56" viewBox="0 0 525.8 239.56"><defs><style>.cls-1{fill:#ff2800;}</style></defs><title>Asset 1</title><g id="Layer_2" data-name="Layer 2"><g id="Layer_1-2" data-name="Layer 1"><g id="Layer_2-2" data-name="Layer 2"><g id="Layer_1-2-2" data-name="Layer 1-2"><path d="M364.18,33.49h0m.42,0h0m1.51,0h-1.93c-15.3.14-23.11,7.85-30.77,18.33l-7.13,9.63h-5.22V12.14c0-8.35-4.7-12.13-12.92-12.13a28.59,28.59,0,0,0-9.91,1.44v10H299c4.3,0,6.65,1.3,6.65,5.35v84.28H321V73.33h5.22L346,101.12h17.87S344.27,72.68,339.19,66l7.61-10.56C352.49,47.77,357.67,45,364,45h.87c6.08,0,10.44,3.28,10.44,12.24v43.86h15.53V55.52c0-11.14-6.93-22-24.74-22M276.7,170.81c1.17-11.22,6.13-16.7,14.48-16.7s12.65,5.87,12.39,16.7Zm14.61-28c-18.78,0-30.39,13.18-30.39,35.35,0,20.09,11.35,33.4,33.39,33.4,13.18,0,20.87-3.66,20.87-3.66V196.51a55.45,55.45,0,0,1-18,3.26c-13,0-19.83-6.13-20.74-18.79h41.23a55.06,55.06,0,0,0,.65-9.66c0-14.87-7.31-28.57-27-28.57M171.68,193.24a18.7,18.7,0,0,1-14.61,6.52c-5.35,0-9.13-3-9.13-8.48,0-6.39,4.17-10,16-10.57l7.7-.26Zm15.52,1.57V165.72c0-15.66-8.74-23-27.53-23A64.18,64.18,0,0,0,138,146.28v11.61a76.28,76.28,0,0,1,20-3c10.7,0,13.7,4.57,13.7,13.44v2.22l-11.09.39c-17.48.65-28.18,7.56-28.18,21.53,0,11.61,8.09,19,21.13,19,10.83,0,17.09-6.39,20.09-10,1.7,7.44,5.61,10,12.53,10A28.58,28.58,0,0,0,195,210.3v-10h-1c-4.43,0-6.78-1.3-6.78-5.48M91.71,199a22.82,22.82,0,0,1-12.78-4V164.27s4-8.46,13.17-8.46c10.83,0,15.39,7.83,15.39,20.74C107.5,191,101.76,199,91.71,199m4.57-56.23c-12.26,0-18,8.55-19.18,11.34-2-7.27-8.62-11.34-18.3-11.34H27c-16.44,0-27,6.91-27,19.57,0,12.39,9.39,17.09,20.35,20.22,9.79,2.74,12.52,5,12.52,9.26,0,5.09-5.09,7.83-13.57,7.83A63.59,63.59,0,0,1,.52,196.51v11.61s7.44,3.39,19,3.39c16.44,0,28.18-7.44,28.18-20.87,0-10.18-6-16.31-21.52-20.22-7.57-2-11.48-4.3-11.48-8.74s3.65-7.18,12.13-7.18H54.06c7.08,0,9.34,3.83,9.34,8.26v76.8H78.93V205.9c3.39,2.87,8.61,5.61,16.57,5.61,19.57,0,28-16.18,28-35.35,0-18.27-7.17-33.4-27.27-33.4M202.81,177.2c0,22,12.13,34.31,32.09,34.31,10.57,0,16.31-2.87,16.31-2.87V197.16a36.68,36.68,0,0,1-13.83,2.74c-12.78,0-18.65-8.74-18.65-23s6.39-22.44,18.65-22.44a38.69,38.69,0,0,1,13.83,2.87V145.76s-5.74-3-15.92-3c-20.48,0-32.48,13.3-32.48,34.44m221.3-95.26V12.14c0-8.35-4.83-12.13-13-12.13a29.1,29.1,0,0,0-9.78,1.44v10h2c3.52.26,5.35,1.56,5.35,5.35V84.9c0,11.35,5,17.35,15,17.35a27.34,27.34,0,0,0,8.48-1.17V90.42h-1.3c-4.7,0-6.65-2.09-6.65-8.48m80.1-20.74c-7.57-2-11.48-4.31-11.48-8.74s3.65-7.17,12.13-7.17a62.37,62.37,0,0,1,16.83,2.61v-12s-6.26-2.35-16.7-2.35c-16.44,0-27,6.91-27,19.57,0,12.39,9.39,17.09,20.35,20.22,9.78,2.74,12.52,5,12.52,9.26,0,5.09-5.09,7.83-13.57,7.83H467.16c-4.7,0-6.66-2.09-6.66-8.48V12.14c0-8.35-4.83-12.13-13-12.13a29.14,29.14,0,0,0-9.79,1.44v10h2c3.52.26,5.35,1.56,5.35,5.35V84.9c0,11.35,5,17.35,15,17.35h37.57c16.43,0,28.17-7.44,28.17-20.87,0-10.18-6-16.31-21.52-20.22m-415-16.31c10.31,0,15.65,8.09,15.65,22.7s-5.39,23.39-15.7,23.39c-10.7,0-15.79-8.61-15.79-23.35s5.09-22.7,15.79-22.7m-.13,57.4c19.18,0,31.7-12.91,31.7-34.57S108.54,33.54,89.1,33.54c-19,0-31.57,12.65-31.57,34.18s12.13,34.57,31.57,34.57m-68.75-29c9.78,2.74,12.52,5,12.52,9.26,0,5.09-5.09,7.83-13.57,7.83A63.55,63.55,0,0,1,.52,87.29v11.6s7.44,3.39,19,3.39c16.44,0,28.18-7.44,28.18-20.87,0-10.18-6-16.31-21.52-20.22-7.57-2-11.48-4.31-11.48-8.74s3.65-7.17,12.13-7.17A62.37,62.37,0,0,1,43.7,47.89v-12S37.44,33.54,27,33.54c-16.44,0-27,6.91-27,19.57C0,65.5,9.39,70.2,20.35,73.33M176.12,34.84H153.55V22.58C153.55,15.8,156.94,12,165,12c6,0,11.09,2.68,11.09,10.33Zm29.62,54.79a29.14,29.14,0,0,1-5.35.52c-6.39,0-9-3.26-9-10V46.71H206V34.84H191.38V22.67C191.38,7.29,180.69,0,165.45,0H165c-20.12,0-26.82,9.65-26.82,22.83v12h-9.52V46.71h9.52v54.4h15.39V46.45h22.57V80.24c0,14.48,6.13,22,19.44,22a38.83,38.83,0,0,0,10.18-1.17Zm59.1-16.31c9.78,2.74,12.52,5,12.52,9.26,0,5.09-5.09,7.83-13.57,7.83A63.55,63.55,0,0,1,245,87.29v11.6s7.44,3.39,19,3.39c16.44,0,28.18-7.44,28.18-20.87,0-10.18-6-16.31-21.53-20.22-7.57-2-11.48-4.31-11.48-8.74s3.65-7.17,12.13-7.17a62.38,62.38,0,0,1,16.83,2.61v-12s-6.26-2.35-16.7-2.35c-16.44,0-27,6.91-27,19.57,0,12.39,9.39,17.09,20.35,20.22"/><path class="cls-1" d="M339.6,211.59a9,9,0,1,0-9-9A9,9,0,0,0,339.6,211.59Z"/><path d="M382.12,24.09a9,9,0,1,0-9-9h0A9,9,0,0,0,382.12,24.09Z"/></g></g></g></g></svg>